<svg width="1676" height="318" viewBox="0 0 1676 318" fill="none" xmlns="http://www.w3.org/2000/svg">
<path d="M1189.4 245L1124.08 84H1160.19L1209.41 210.73L1259.78 84H1294.28L1228.04 245H1189.4ZM1306.42 245V119.96H1339.3V245H1306.42ZM1322.74 105.08C1317.62 105.08 1313.22 103.24 1309.54 99.56C1305.86 95.88 1304.02 91.48 1304.02 86.36C1304.02 81.08 1305.86 76.68 1309.54 73.16C1313.22 69.48 1317.62 67.64 1322.74 67.64C1328.02 67.64 1332.42 69.48 1335.94 73.16C1339.62 76.68 1341.46 81.08 1341.46 86.36C1341.46 91.48 1339.62 95.88 1335.94 99.56C1332.42 103.24 1328.02 105.08 1322.74 105.08ZM1426.21 247.4C1413.73 247.4 1402.37 244.52 1392.13 238.76C1382.05 233 1374.05 225.24 1368.13 215.48C1362.21 205.72 1359.25 194.76 1359.25 182.6C1359.25 170.44 1362.05 159.48 1367.65 149.72C1373.41 139.96 1381.17 132.2 1390.93 126.44C1400.69 120.68 1411.57 117.8 1423.57 117.8C1435.57 117.8 1446.21 120.76 1455.49 126.68C1464.77 132.6 1472.05 140.6 1477.33 150.68C1482.77 160.76 1485.49 172.2 1485.49 185V193.64H1392.85C1394.29 198.6 1396.61 203.08 1399.81 207.08C1403.17 211.08 1407.25 214.2 1412.05 216.44C1417.01 218.68 1422.29 219.8 1427.89 219.8C1433.49 219.8 1438.61 218.92 1443.25 217.16C1448.05 215.4 1452.13 212.92 1455.49 209.72L1477.09 229.4C1469.41 235.64 1461.49 240.2 1453.33 243.08C1445.33 245.96 1436.29 247.4 1426.21 247.4ZM1392.37 170.12H1453.09C1451.97 165.16 1449.89 160.84 1446.85 157.16C1443.97 153.32 1440.45 150.36 1436.29 148.28C1432.29 146.04 1427.81 144.92 1422.85 144.92C1417.73 144.92 1413.09 145.96 1408.93 148.04C1404.77 150.12 1401.25 153.08 1398.37 156.92C1395.65 160.6 1393.65 165 1392.37 170.12ZM1527.05 245L1492.73 119.96H1523.93L1544.57 200.6L1569.53 119.96H1597.13L1621.85 200.84L1642.49 119.96H1673.21L1638.65 245H1607.21L1582.97 165.08L1558.73 245H1527.05Z" fill="#FF9012"/>
<path d="M333.65 172.663C357.882 172.663 375.902 160.445 375.902 139.527V139.115C375.902 119.647 360.572 107.428 334.272 107.428H284.769V172.663H333.65ZM274 97.4844H334.894C352.704 97.4844 366.995 103.078 375.696 111.778C382.531 118.613 386.671 128.343 386.671 138.699V139.115C386.671 163.345 368.655 177.219 344.213 180.535L392.056 242.458H378.386L332.2 182.397H331.784H284.769V242.458H274V97.4844Z" fill="#484C4F"/>
<path d="M400.742 170.385V169.973C400.742 128.758 431.809 95 476.34 95C503.678 95 520.042 104.112 533.505 117.368L513.207 140.77C502.022 130.62 490.631 124.408 476.134 124.408C451.691 124.408 434.087 144.704 434.087 169.557V169.973C434.087 194.825 451.279 215.533 476.134 215.533C492.703 215.533 502.85 208.905 514.241 198.549L534.543 219.051C519.626 235.001 503.056 244.941 475.095 244.941C432.431 244.941 400.742 212.011 400.742 170.385Z" fill="#484C4F"/>
<path d="M547.58 97.4854H579.475V213.462H651.76V242.455H547.58V97.4854Z" fill="#484C4F"/>
<path d="M769.384 170.385V169.973C769.384 145.12 751.163 124.408 725.476 124.408C699.798 124.408 681.98 144.704 681.98 169.557V169.973C681.98 194.825 700.21 215.533 725.892 215.533C751.575 215.533 769.384 195.237 769.384 170.385ZM648.639 170.385V169.973C648.639 128.758 681.156 95 725.892 95C770.629 95 802.73 128.342 802.73 169.557V169.973C802.73 211.183 770.217 244.941 725.476 244.941C680.74 244.941 648.639 211.599 648.639 170.385Z" fill="#484C4F"/>
<path d="M818.664 97.4854H848.079L916.014 186.744V97.4854H947.493V242.455H920.36L850.151 150.296V242.455H818.664V97.4854Z" fill="#484C4F"/>
<path d="M969.846 97.4854H1079.2V125.86H1001.53V155.264H1069.88V183.638H1001.53V214.081H1080.24V242.455H969.846V97.4854Z" fill="#484C4F"/>
<g clip-path="url(#clip0_146_152)">
<path d="M202.999 196.95C202.999 253.319 147.403 299 78.8044 299H19.8967C15.8239 299 12.5117 296.297 12.5117 292.93V126.009C12.5117 82.1225 56.208 45.3865 109.62 46.222C161.364 47.0329 202.999 81.7539 202.999 124.461V196.95Z" fill="#F5BE43"/>
<path d="M73.3833 165.866C96.4727 165.866 115.19 147.12 115.19 123.995C115.19 100.87 96.4727 82.123 73.3833 82.123C50.2939 82.123 31.5762 100.87 31.5762 123.995C31.5762 147.12 50.2939 165.866 73.3833 165.866Z" fill="white"/>
<path d="M143.944 165.866C167.033 165.866 185.751 147.12 185.751 123.995C185.751 100.87 167.033 82.123 143.944 82.123C120.854 82.123 102.137 100.87 102.137 123.995C102.137 147.12 120.854 165.866 143.944 165.866Z" fill="white"/>
<path d="M143.944 151.909C159.337 151.909 171.815 139.411 171.815 123.994C171.815 108.578 159.337 96.0801 143.944 96.0801C128.551 96.0801 116.072 108.578 116.072 123.994C116.072 139.411 128.551 151.909 143.944 151.909Z" fill="#CCCCCC"/>
<path opacity="0.8" d="M143.944 141.367C153.524 141.367 161.29 133.589 161.29 123.994C161.29 114.399 153.524 106.621 143.944 106.621C134.364 106.621 126.598 114.399 126.598 123.994C126.598 133.589 134.364 141.367 143.944 141.367Z" fill="#484C4F"/>
<path d="M150.716 125.763C156.298 125.763 160.824 121.231 160.824 115.64C160.824 110.048 156.298 105.516 150.716 105.516C145.133 105.516 140.607 110.048 140.607 115.64C140.607 121.231 145.133 125.763 150.716 125.763Z" fill="white"/>
<path d="M70.1937 151.909C85.5866 151.909 98.0651 139.411 98.0651 123.994C98.0651 108.578 85.5866 96.0801 70.1937 96.0801C54.8007 96.0801 42.3223 108.578 42.3223 123.994C42.3223 139.411 54.8007 151.909 70.1937 151.909Z" fill="#CCCCCC"/>
<path opacity="0.8" d="M70.1937 141.367C79.7736 141.367 87.5397 133.589 87.5397 123.994C87.5397 114.399 79.7736 106.621 70.1937 106.621C60.6137 106.621 52.8477 114.399 52.8477 123.994C52.8477 133.589 60.6137 141.367 70.1937 141.367Z" fill="#484C4F"/>
<path d="M76.9403 125.763C82.523 125.763 87.0486 121.231 87.0486 115.64C87.0486 110.048 82.523 105.516 76.9403 105.516C71.3577 105.516 66.832 110.048 66.832 115.64C66.832 121.231 71.3577 125.763 76.9403 125.763Z" fill="white"/>
<path d="M109.081 189.726L93.7715 160.927L109.081 145.594L124.415 160.927L109.081 189.726Z" fill="#484C4F"/>
<path d="M109.081 115.64L109.179 115.541C109.179 115.541 109.179 115.517 109.327 115.345C143.822 70.5244 155.844 89.2979 182.244 81.7541C207.514 74.5298 204.079 53.0779 200.645 38.1378C200.424 37.2041 199.295 36.9092 198.608 37.5726C174.27 62.5629 152.704 60.376 152.704 60.376L109.106 61.4572L65.5076 60.376C65.5076 60.376 43.0093 62.6858 18.0575 36C14.549 50.9155 9.44582 74.1857 35.9678 81.7541C62.3671 89.2979 74.6099 70.8193 109.106 115.64" fill="#FF9012"/>
<path opacity="0.8" d="M119.459 238.503C123.944 238.503 127.58 232.925 127.58 226.044C127.58 219.164 123.944 213.586 119.459 213.586C114.974 213.586 111.338 219.164 111.338 226.044C111.338 232.925 114.974 238.503 119.459 238.503Z" fill="white"/>
<path opacity="0.8" d="M175.668 238.674C180.153 238.674 183.789 233.097 183.789 226.216C183.789 219.336 180.153 213.758 175.668 213.758C171.183 213.758 167.547 219.336 167.547 226.216C167.547 233.097 171.183 238.674 175.668 238.674Z" fill="white"/>
<path opacity="0.8" d="M149.072 219.36C153.557 219.36 157.193 213.782 157.193 206.902C157.193 200.021 153.557 194.443 149.072 194.443C144.587 194.443 140.951 200.021 140.951 206.902C140.951 213.782 144.587 219.36 149.072 219.36Z" fill="white"/>
<path opacity="0.8" d="M146.398 261.65C150.883 261.65 154.519 256.072 154.519 249.192C154.519 242.311 150.883 236.733 146.398 236.733C141.913 236.733 138.277 242.311 138.277 249.192C138.277 256.072 141.913 261.65 146.398 261.65Z" fill="white"/>
<path opacity="0.8" d="M119.459 282.266C123.944 282.266 127.58 276.688 127.58 269.808C127.58 262.927 123.944 257.35 119.459 257.35C114.974 257.35 111.338 262.927 111.338 269.808C111.338 276.688 114.974 282.266 119.459 282.266Z" fill="white"/>
<path d="M13.7386 168.249C12.9044 167.979 12.0947 168.274 11.4814 168.888C5.02875 171.837 -0.0253906 197.22 -0.0253906 228.083C-0.0253906 260.937 5.69119 287.573 12.7326 287.573C12.8063 287.573 12.8553 287.573 12.9289 287.573C13.1743 287.573 13.4442 287.573 13.714 287.5C26.2513 283.642 46.5169 258.406 46.5169 227.887C46.5169 197.368 26.2513 172.132 13.714 168.274L13.7386 168.249Z" fill="#FF9012"/>
</g>
<defs>
<clipPath id="clip0_146_152">
<rect width="203" height="263" fill="white" transform="translate(0 36)"/>
</clipPath>
</defs>
</svg>
