<svg width="676" height="104" viewBox="0 0 676 104" fill="none" xmlns="http://www.w3.org/2000/svg">
<path d="M145.646 60.0826C155.251 60.0826 162.395 55.2393 162.395 46.9471V46.7838C162.395 39.0665 156.318 34.2232 145.892 34.2232H126.269V60.0826H145.646ZM122 30.2812H146.139C153.199 30.2812 158.864 32.4987 162.313 35.9475C165.022 38.6566 166.664 42.5138 166.664 46.6189V46.7838C166.664 56.3889 159.522 61.8888 149.833 63.2033L168.798 87.7497H163.379L145.071 63.9413H144.906H126.269V87.7497H122V30.2812Z" fill="white"/>
<path d="M174.798 58.1951V58.0318C174.798 41.6941 187.113 28.312 204.765 28.312C215.603 28.312 222.089 31.9241 227.426 37.1789L219.38 46.4558C214.946 42.4322 210.431 39.9697 204.684 39.9697C194.995 39.9697 188.016 48.0152 188.016 57.8669V58.0318C188.016 67.8834 194.831 76.0922 204.684 76.0922C211.252 76.0922 215.274 73.4648 219.79 69.3596L227.838 77.4868C221.924 83.8096 215.356 87.7499 204.272 87.7499C187.36 87.7499 174.798 74.6961 174.798 58.1951Z" fill="white"/>
<path d="M233.838 30.2827H246.482V76.2569H275.136V87.7496H233.838V30.2827Z" fill="white"/>
<path d="M329 58.1951V58.0318C329 48.1801 321.777 39.9697 311.595 39.9697C301.416 39.9697 294.352 48.0152 294.352 57.8669V58.0318C294.352 67.8834 301.579 76.0922 311.76 76.0922C321.94 76.0922 329 68.0467 329 58.1951ZM281.136 58.1951V58.0318C281.136 41.6941 294.026 28.312 311.76 28.312C329.493 28.312 342.219 41.5292 342.219 57.8669V58.0318C342.219 74.3679 329.33 87.7499 311.595 87.7499C293.861 87.7499 281.136 74.5328 281.136 58.1951Z" fill="white"/>
<path d="M348.219 30.2827H359.879L386.809 65.6656V30.2827H399.288V87.7496H388.532L360.701 51.2172V87.7496H348.219V30.2827Z" fill="white"/>
<path d="M405.288 30.2827H448.638V41.5305H417.848V53.1866H444.943V64.4343H417.848V76.5019H449.048V87.7496H405.288V30.2827Z" fill="white"/>
<mask id="mask0_147_122" style="mask-type:luminance" maskUnits="userSpaceOnUse" x="455" y="16" width="219" height="72">
<path d="M673.072 16H455.048V87.7497H673.072V16Z" fill="white"/>
</mask>
<g mask="url(#mask0_147_122)">
<path d="M480.972 86.5607L455.079 22.7391H469.393L488.904 72.9758L508.871 22.7391H522.547L496.289 86.5607H480.972ZM527.359 86.5607V36.9939H540.392V86.5607H527.359ZM533.828 31.0954C531.798 31.0954 530.054 30.366 528.595 28.9072C527.137 27.4485 526.407 25.7043 526.407 23.6747C526.407 21.5816 527.137 19.8374 528.595 18.4421C530.054 16.9833 531.798 16.2539 533.828 16.2539C535.921 16.2539 537.665 16.9833 539.061 18.4421C540.519 19.8374 541.249 21.5816 541.249 23.6747C541.249 25.7043 540.519 27.4485 539.061 28.9072C537.665 30.366 535.921 31.0954 533.828 31.0954ZM574.846 87.5121C569.899 87.5121 565.395 86.3704 561.336 84.0871C557.34 81.8038 554.169 78.7277 551.822 74.8588C549.476 70.9898 548.302 66.6452 548.302 61.8249C548.302 57.0046 549.412 52.66 551.632 48.791C553.915 44.9221 556.992 41.846 560.861 39.5627C564.729 37.2794 569.042 36.1377 573.799 36.1377C578.556 36.1377 582.774 37.3111 586.453 39.6578C590.131 42.0045 593.017 45.1758 595.11 49.1716C597.267 53.1674 598.345 57.7023 598.345 62.7763V66.2012H561.622C562.192 68.1674 563.112 69.9433 564.381 71.5289C565.713 73.1146 567.33 74.3514 569.233 75.2393C571.199 76.1273 573.292 76.5712 575.512 76.5712C577.732 76.5712 579.761 76.2224 581.601 75.5247C583.503 74.8271 585.121 73.844 586.453 72.5755L595.015 80.3767C591.971 82.8503 588.831 84.6579 585.596 85.7996C582.425 86.9413 578.842 87.5121 574.846 87.5121ZM561.431 56.8777H585.501C585.057 54.9116 584.233 53.1991 583.028 51.7403C581.886 50.2181 580.491 49.0447 578.842 48.2202C577.256 47.3322 575.48 46.8883 573.514 46.8883C571.484 46.8883 569.645 47.3005 567.996 48.1251C566.347 48.9496 564.951 50.123 563.81 51.6452C562.732 53.1039 561.939 54.8481 561.431 56.8777ZM614.82 86.5607L601.215 36.9939H613.583L621.765 68.9602L631.659 36.9939H642.6L652.399 69.0554L660.581 36.9939H672.759L659.059 86.5607H646.596L636.987 54.8798L627.378 86.5607H614.82Z" fill="white"/>
</g>
<rect width="104" height="104" rx="52" fill="white"/>
<path d="M76.0058 58.9429C76.0058 72.2315 62.8601 83.0002 46.6396 83.0002H32.7107C31.7477 83.0002 30.9645 82.363 30.9645 81.5694V42.2192C30.9645 31.8733 41.2966 23.2131 53.926 23.41C66.161 23.6012 76.0058 31.7864 76.0058 41.8542V58.9429Z" fill="#F5BE43"/>
<path d="M45.3575 51.6148C50.8171 51.6148 55.243 47.1955 55.243 41.7439C55.243 36.2924 50.8171 31.873 45.3575 31.873C39.898 31.873 35.4721 36.2924 35.4721 41.7439C35.4721 47.1955 39.898 51.6148 45.3575 51.6148Z" fill="white"/>
<path d="M62.042 51.6148C67.5016 51.6148 71.9275 47.1955 71.9275 41.7439C71.9275 36.2924 67.5016 31.873 62.042 31.873C56.5825 31.873 52.1566 36.2924 52.1566 41.7439C52.1566 47.1955 56.5825 51.6148 62.042 51.6148Z" fill="white"/>
<path d="M62.0421 48.3243C65.6818 48.3243 68.6323 45.378 68.6323 41.7437C68.6323 38.1093 65.6818 35.1631 62.0421 35.1631C58.4024 35.1631 55.4518 38.1093 55.4518 41.7437C55.4518 45.378 58.4024 48.3243 62.0421 48.3243Z" fill="#CCCCCC"/>
<path opacity="0.8" d="M62.0421 45.8394C64.3073 45.8394 66.1436 44.0058 66.1436 41.7439C66.1436 39.4821 64.3073 37.6484 62.0421 37.6484C59.7769 37.6484 57.9406 39.4821 57.9406 41.7439C57.9406 44.0058 59.7769 45.8394 62.0421 45.8394Z" fill="#484C4F"/>
<path d="M63.6432 42.1609C64.9632 42.1609 66.0333 41.0924 66.0333 39.7743C66.0333 38.4562 64.9632 37.3877 63.6432 37.3877C62.3232 37.3877 61.2531 38.4562 61.2531 39.7743C61.2531 41.0924 62.3232 42.1609 63.6432 42.1609Z" fill="white"/>
<path d="M44.6033 48.3243C48.2431 48.3243 51.1936 45.378 51.1936 41.7437C51.1936 38.1093 48.2431 35.1631 44.6033 35.1631C40.9636 35.1631 38.0131 38.1093 38.0131 41.7437C38.0131 45.378 40.9636 48.3243 44.6033 48.3243Z" fill="#CCCCCC"/>
<path opacity="0.8" d="M44.6034 45.8394C46.8686 45.8394 48.7049 44.0058 48.7049 41.7439C48.7049 39.4821 46.8686 37.6484 44.6034 37.6484C42.3381 37.6484 40.5018 39.4821 40.5018 41.7439C40.5018 44.0058 42.3381 45.8394 44.6034 45.8394Z" fill="#484C4F"/>
<path d="M46.1987 42.1609C47.5187 42.1609 48.5888 41.0924 48.5888 39.7743C48.5888 38.4562 47.5187 37.3877 46.1987 37.3877C44.8786 37.3877 43.8085 38.4562 43.8085 39.7743C43.8085 41.0924 44.8786 42.1609 46.1987 42.1609Z" fill="white"/>
<path d="M53.7984 57.2398L50.1784 50.4506L53.7984 46.8359L57.4242 50.4506L53.7984 57.2398Z" fill="#484C4F"/>
<path d="M53.7984 39.7744L53.8216 39.7512C53.8216 39.7512 53.8216 39.7454 53.8564 39.7049C62.0131 29.1388 64.8557 33.5645 71.0979 31.7861C77.0732 30.0831 76.2611 25.026 75.4489 21.504C75.3967 21.2838 75.1298 21.2143 74.9674 21.3707C69.2125 27.262 64.1131 26.7464 64.1131 26.7464L53.8042 27.0013L43.4953 26.7464C43.4953 26.7464 38.1755 27.2909 32.2756 21C31.446 24.5162 30.2393 30.002 36.5105 31.7861C42.7527 33.5645 45.6476 29.2084 53.8042 39.7744" fill="#EC8902"/>
<path opacity="0.8" d="M56.2524 68.7381C57.3129 68.7381 58.1726 67.4232 58.1726 65.8012C58.1726 64.1792 57.3129 62.8643 56.2524 62.8643C55.1919 62.8643 54.3322 64.1792 54.3322 65.8012C54.3322 67.4232 55.1919 68.7381 56.2524 68.7381Z" fill="white"/>
<path opacity="0.8" d="M69.5432 68.7787C70.6037 68.7787 71.4634 67.4637 71.4634 65.8417C71.4634 64.2197 70.6037 62.9048 69.5432 62.9048C68.4826 62.9048 67.6229 64.2197 67.6229 65.8417C67.6229 67.4637 68.4826 68.7787 69.5432 68.7787Z" fill="white"/>
<path opacity="0.8" d="M63.2545 64.2254C64.315 64.2254 65.1748 62.9105 65.1748 61.2885C65.1748 59.6665 64.315 58.3516 63.2545 58.3516C62.194 58.3516 61.3343 59.6665 61.3343 61.2885C61.3343 62.9105 62.194 64.2254 63.2545 64.2254Z" fill="white"/>
<path opacity="0.8" d="M62.6222 74.1952C63.6827 74.1952 64.5424 72.8802 64.5424 71.2582C64.5424 69.6362 63.6827 68.3213 62.6222 68.3213C61.5617 68.3213 60.702 69.6362 60.702 71.2582C60.702 72.8802 61.5617 74.1952 62.6222 74.1952Z" fill="white"/>
<path opacity="0.8" d="M56.2524 79.055C57.3129 79.055 58.1726 77.7401 58.1726 76.1181C58.1726 74.4961 57.3129 73.1812 56.2524 73.1812C55.1919 73.1812 54.3322 74.4961 54.3322 76.1181C54.3322 77.7401 55.1919 79.055 56.2524 79.055Z" fill="white"/>
<path d="M31.2545 52.1765C31.0573 52.1128 30.8658 52.1823 30.7208 52.3272C29.1951 53.0223 28 59.0062 28 66.2819C28 74.0269 29.3517 80.3062 31.0167 80.3062C31.0341 80.3062 31.0457 80.3062 31.0631 80.3062C31.1211 80.3062 31.1849 80.3062 31.2487 80.2889C34.2132 79.3794 39.0051 73.4302 39.0051 66.2356C39.0051 59.041 34.2132 53.0918 31.2487 52.1823L31.2545 52.1765Z" fill="#EC8902"/>
</svg>
